<svg id="Layer_1" data-name="Layer 1" xmlns="http://www.w3.org/2000/svg" viewBox="0 0 168.77 83.38"><defs><style>.cls-1{fill:#2e1028;}.cls-2{fill:#590e30;}.cls-3{opacity:0.06;}.cls-4{fill:#fff;}.cls-5{fill:#230d1f;}.cls-6{fill:#e5e5e5;}.cls-7{fill:#bfbfbf;}.cls-8{fill:#d9d9d9;}.cls-9{fill:#dedede;}</style></defs><title>stick</title><path class="cls-1" d="M168.77,41.7A41.69,41.69,0,1,1,127.07,0,41.69,41.69,0,0,1,168.77,41.7Z"/><path class="cls-2" d="M127.07,0h-1.26l-.75,0L126,20l1.06,0V0Zm-4,.19-.17,0h-.14q-.84.09-1.67.21l2.84,19.8,1-.12L123.07.19Zm-4,.57-.09,0h-.42l-1.44.32,4.74,19.43,1-.22L119.12.76Zm-3.88.95-.8.25h0l-.06,0h0l-.06,0h0l-.05,0-.93.31,6.59,18.88,1-.32L115.23,1.71ZM111.46,3q-.93.38-1.83.79L118,22l.95-.41L111.46,3ZM107.83,4.7q-.89.46-1.75,1l10.09,17.27.91-.5L107.83,4.7Zm-3.45,2q-.84.55-1.65,1.13l11.69,16.22c.28-.2.57-.4.86-.59L104.38,6.72Zm-3.24,2.34q-.78.62-1.54,1.28l13.19,15c.26-.23.53-.45.8-.67L101.13,9.05Zm-3,2.64-.84.84h0l0,0h0l0,0h0v0h0l0,0h0l-.43.45,14.56,13.71c.24-.25.49-.5.74-.74L98.13,11.69ZM95.38,14.6h-.09v0h0v0h0l0,0h0q-.56.67-1.1,1.36l0,0,15.8,12.26c.21-.27.43-.55.66-.81l-15.2-13Zm-2.45,3.16-.16.23h0q-.48.69-.92,1.4l16.9,10.69c.18-.29.38-.58.58-.87L92.93,17.76Zm-2.14,3.38-.45.82h0l-.49.93,17.85,9c.15-.31.32-.61.49-.92l-17.4-9.87ZM89,24.71l-.2.46h0l0,.06h0l0,.06h0q-.27.63-.52,1.27l18.63,7.26c.13-.32.26-.64.4-1L89,24.71Zm-1.45,3.73c-.09.27-.18.53-.26.8h0v0h0v0h0v0h0v0h0v0h0v0h0v0h0v0h0v0h0v0h0v0h0v0h0v0h0v0h0v0h0v0h0v0h0v0h0l-.16.55,19.25,5.43c.09-.33.2-.66.31-1l-19-6.35Zm-1.09,3.85q-.18.79-.33,1.59l-.07.37,19.68,3.55c.06-.34.13-.68.21-1l-19.49-4.5Zm-.71,3.93q-.08.64-.15,1.28h0v0h0v0h0v0h0q0,.3-.05.59l19.93,1.65c0-.35.07-.69.11-1l-19.83-2.6Zm-.33,4q0,.48,0,1h0v0h0v.06h0v.29h0v0h0v0h0v0h0v.05h0v0h0c0,.13,0,.27,0,.4l20-.23V41.7c0-.27,0-.53,0-.8l-20-.71Zm20,2.82-20,1.18c0,.57.08,1.14.14,1.7h0v0h0v0h0v0h0l0,.18,19.89-2.13c0-.35-.06-.69-.08-1Zm.22,2.07L85.89,48.18v0h0v0h0v0h0q.12.79.28,1.56h0v0h0v0h0v0h0l0,.17,19.59-4c-.07-.34-.13-.68-.18-1Zm.42,2-19.37,5q.25,1,.54,1.92l19.11-5.9c-.1-.33-.2-.66-.28-1Zm.61,2-18.8,6.82q.34.94.73,1.86L107,50.06c-.13-.32-.26-.64-.38-1Zm.8,1.91L89.41,59.6l.1.22h0v0h0c.18.37.36.73.55,1.1h0v0h0v0h0v0h0l.17.33,17.62-9.46c-.16-.3-.32-.61-.47-.92Zm1,1.83L91.3,63.13l.29.48h0v0h0v0h0q.36.58.74,1.15L109,53.71c-.19-.29-.38-.58-.56-.88Zm1.16,1.73L93.52,66.45l.22.3h0l0,0h0l0,0h0v0h0v0h0v0h.09v0h0v0h0v0h0v0h0l0,0h0l0,0h0l.71.89,15.5-12.64c-.22-.27-.43-.54-.64-.82Zm1.32,1.62L96.05,69.55q.67.74,1.37,1.46l14.22-14.06c-.25-.25-.49-.5-.72-.76Zm1.47,1.49L98.86,72.39l.76.68h.06l0,0h0l.67.57,12.82-15.35c-.27-.22-.53-.45-.79-.69ZM114,59,101.93,75l.93.68.69.48,11.29-16.5L114,59Zm1.72,1.18-10.49,17,.1.06h.07q.75.46,1.52.88h0l9.66-17.51c-.3-.17-.6-.34-.9-.52Zm1.82,1-8.81,18,.34.16h.22l1.26.57,7.93-18.36-.94-.43Zm1.9.82-7,18.72c.62.23,1.25.45,1.89.66l6.13-19-1-.34Zm2,.63L116.21,82l.24.06h.2l1.5.36,4.26-19.54c-.34-.07-.67-.15-1-.24Zm2,.44-3.31,19.72,1.51.23.47.06,2.36-19.86-1-.15Zm2.07.25-1.41,20,.4,0h.09l1,0h.54l.46-20c-.35,0-.7,0-1.05,0Zm3.16,0-1.05,0,.48,20,.56,0h.13l1.18-.06h.12l-1.42-20Zm2.07-.25-1,.15,2.37,19.86q.92-.11,1.83-.26h.15l-3.32-19.72Zm2-.44-1,.24L136,82.42l.22,0h.21l.76-.18h.36L138,82l-5.2-19.32Zm2-.63-1,.34,6.13,19,.92-.31h.2l.77-.28-7-18.72Zm1.9-.82-.94.43L143.62,80l1-.47h.16l.62-.3-8.81-18Zm1.82-1-.9.52,9.67,17.51.18-.1h.17q.69-.39,1.37-.81l-10.5-17ZM140.16,59c-.28.21-.56.42-.85.61l11.3,16.5.75-.53h0l0,0h0l0,0h.2l0,0h0l.6-.45L140.16,59Zm1.6-1.34c-.26.24-.52.47-.79.69L153.8,73.7h0l0,0h.28l0,0h0l0,0h0l0,0h0l1-.87h0l0,0h.07l0,0h0l0,0h0L141.76,57.66Zm1.47-1.49c-.23.26-.47.51-.72.76L156.74,71h0l0,0h0l.93-1h0l0,0h0v0h0l0,0h0l.32-.35L143.23,56.17Zm1.32-1.62c-.21.28-.42.56-.64.83L159.41,68h0v0h.06v0h0v0h0l0,0h0l0,0h0l.62-.79h0l0,0h0v0h0v0h0v0h0l.35-.47L144.55,54.56Zm1.16-1.73c-.18.3-.37.59-.56.88l16.64,11.1.14-.21v0h0q.46-.7.9-1.43h0v0h0L145.71,52.82Zm1-1.83c-.15.31-.3.62-.47.92l17.63,9.45.27-.51.42-.83h0v0h0v0h0v0h0l.16-.34L146.69,51Zm.8-1.91c-.12.32-.24.65-.37,1l18.45,7.71.28-.69h0v0h0v0h0v0h0c.14-.35.27-.7.4-1.06l-18.8-6.81Zm.61-2c-.09.33-.18.67-.28,1L166.93,54l.13-.42h0v0h0v0h0v0h0v0h0v0h0v0h0v0h0v0h0v0h0v0h0c.12-.4.23-.8.33-1.21l-19.37-5Zm.42-2c-.05.34-.12.68-.18,1l19.59,4q.18-.85.32-1.72l0-.25-19.76-3.07Zm.22-2.07c0,.35,0,.7-.09,1l19.89,2.12c0-.24,0-.47.07-.7h0v0h0v0h0q0-.57.08-1.14v-.06l-20-1.17Zm20-2.83-20,.71q0,.4,0,.8V42l20,.23V41.8h0v0h0v0h0v0h0v0h0v0h0v-.21h0v0h0s0-.06,0-.09h0v0h0c0-.15,0-.29,0-.43h0s0-.06,0-.09h0v-.07s0,0,0,0h0v0h0c0-.09,0-.18,0-.28Zm-.33-4-19.83,2.61c0,.34.08.69.11,1l19.93-1.66q0-.23,0-.47h0v0h0v0h0v0h0v0h0c0-.46-.1-.92-.16-1.37Zm-.71-3.93-19.49,4.5c.08.33.15.68.21,1l19.68-3.56q-.09-.48-.18-1h0v0h0v0h0v0h0v0h0v0h0v0h0v0h0v0h0v0h0v0h0v0h0l-.07-.31h0v-.05h0v0h0l-.06-.24Zm-1.09-3.85-19,6.36c.11.33.21.66.3,1l19.25-5.44h0v0h0v0h0v0h0q-.21-.74-.45-1.47h0v0h0l-.1-.29Zm-1.45-3.72L146.9,32.85c.14.31.27.63.4,1l18.63-7.27q-.36-.93-.77-1.85Zm-1.81-3.57L146,31c.17.3.34.61.49.92l17.84-9q-.4-.78-.82-1.54h0v0h0v0h0v0h0v0h0v0h0v0h0Zm-2.14-3.38-16.36,11.5c.2.28.39.58.58.87l16.9-10.7-.13-.2h0v0h0c-.21-.33-.43-.66-.66-1h0v0h0l-.27-.38Zm-2.45-3.16-15.19,13c.23.26.45.54.66.81L160,16.14l-.12-.15h0l0,0h0l0,0h0v0h0v0h0v0h0v0h0v0h0l0,0h0l0,0h0l0,0h0l0,0h0l0,0h0l0,0h0l0,0h0l0,0h0l0,0h0l0,0h0l0,0h0v0h0v0h0v0h0v0h0v0h-.1v0h0v0h0l0,0h0l0,0h0l0,0h0l0,0h0l0,0h0l0,0h0l0,0h0l0,0h0l0,0h0l0,0h0l0,0h0v0h0v0h0v0h0v0h0v0h-.06v0h0l0,0h0l-.13-.15ZM156,11.68l-13.88,14.4c.25.24.5.49.74.74L157.42,13.1h0q-.69-.73-1.4-1.42ZM153,9,140.56,24.7c.27.22.54.44.8.67l13.18-15-.23-.2h0q-.62-.53-1.26-1Zm-3.24-2.34-10.9,16.77c.29.19.58.39.86.59L151.42,7.84,151,7.51h-.06l-.52-.35h-.08l-.55-.36Zm-3.45-2-9.24,17.74.91.5L148.06,5.66l-.43-.25h0l-.05,0h0l-.05,0h0l-1.21-.66ZM142.68,3l-7.49,18.54.95.41,8.37-18.16h-.31q-.75-.34-1.52-.65ZM138.9,1.7l-5.66,19.18,1,.32,6.58-18.89-1.34-.44h-.15l-.42-.13ZM135,.76l-3.79,19.64,1,.22L137,1.18h-.23l-.82-.19h-.23L135,.76Zm-4-.57L129.17,20.1l1,.12L133,.42l-.5-.07h-.21l-.9-.1h-.11l-.27,0Zm-4-.19V20l1.06,0,.94-20-1.21,0h-.78Z"/><path class="cls-1" d="M127.07,2A39.69,39.69,0,1,1,87.39,41.7,39.75,39.75,0,0,1,127.07,2m0-2a41.69,41.69,0,1,0,41.7,41.7A41.69,41.69,0,0,0,127.07,0Z"/><g class="cls-3"><path class="cls-4" d="M163.09,41.7a36,36,0,1,1-36-36A36,36,0,0,1,163.09,41.7Z"/></g><path class="cls-1" d="M127.07,69.83A28.12,28.12,0,1,1,155.2,41.7,28.16,28.16,0,0,1,127.07,69.83Z"/><path class="cls-5" d="M127.07,16.58A25.12,25.12,0,1,1,101.95,41.7a25.15,25.15,0,0,1,25.12-25.12m0-6A31.12,31.12,0,1,0,158.2,41.7a31.11,31.11,0,0,0-31.13-31.12Z"/><g id="LS_pressed" data-name="LS pressed"><path class="cls-6" d="M83.39,41.7A41.69,41.69,0,1,1,41.69,0,41.69,41.69,0,0,1,83.39,41.7Z"/><path class="cls-7" d="M41.69,0H40.43l-.75,0,.94,20,1.06,0V0Zm-4,.19-.17,0h-.14q-.84.09-1.67.21l2.84,19.8,1-.12L37.69.19Zm-4,.57-.09,0h-.42l-1.44.32,4.74,19.43,1-.22L33.73.76Zm-3.89.95L29,2h0L29,2h0l-.06,0h0l0,0-.93.31L34.54,21.2l1-.32L29.85,1.71ZM26.07,3q-.93.38-1.84.79L32.62,22l1-.41L26.07,3ZM22.44,4.7q-.89.46-1.75,1L30.78,22.94l.91-.5L22.44,4.7ZM19,6.72q-.84.55-1.65,1.13L29,24.07c.28-.2.57-.4.86-.59L19,6.72ZM15.75,9.05q-.78.62-1.53,1.28l13.19,15c.26-.23.53-.45.8-.67L15.75,9.05Zm-3,2.64-.84.84h0l0,0h0l0,0h0l0,0h0l0,0h0l-.44.45L25.9,26.82c.24-.25.49-.5.74-.74L12.74,11.69ZM10,14.6H9.91v0h0v0h0l0,0h0q-.56.67-1.1,1.36l0,0,15.8,12.26c.21-.27.43-.55.66-.81L10,14.6ZM7.55,17.76,7.39,18h0q-.48.69-.92,1.4l16.9,10.69c.18-.29.38-.58.58-.87L7.55,17.76ZM5.41,21.14,5,22H5l-.49.93,17.85,9c.16-.31.32-.61.49-.92L5.41,21.14Zm-1.8,3.57-.2.46h0l0,.06h0l0,.06h0q-.27.63-.52,1.27l18.63,7.26c.13-.32.26-.64.4-1L3.61,24.71ZM2.15,28.43c-.09.27-.18.53-.26.8h0v0h0v0h0v0h0v0h0v0h0v0h0v0h0v0h0v0h0v0h0v0h0v0h0v0h0v0h0v0h0v0h0v0h0v0h0l-.16.55,19.25,5.43c.09-.33.2-.66.31-1l-19-6.35ZM1.07,32.28q-.18.79-.34,1.59l-.07.37,19.68,3.55c.06-.34.13-.68.21-1L1.07,32.28ZM.36,36.22q-.08.64-.15,1.28h0v0h0v0h0v0h0q0,.3-.05.59l19.93,1.65c0-.35.07-.69.11-1L.36,36.22ZM0,40.2q0,.48,0,1H0v0H0v.06H0v.29H0v0H0v0H0v0H0v.05H0v0H0c0,.13,0,.27,0,.4L20,42V41.7c0-.27,0-.53,0-.8L0,40.2ZM20,43,.07,44.2c0,.57.08,1.14.14,1.7h0v0h0v0h0v0h0l0,.18,19.89-2.13c0-.35-.06-.69-.08-1Zm.22,2.07L.5,48.17v0h0v0h0v0h0q.12.79.28,1.56h0v0h0v0h0v0h0l0,.17,19.59-4c-.07-.34-.13-.68-.18-1Zm.42,2-19.37,5q.25,1,.54,1.92L21,48.12c-.1-.33-.19-.66-.28-1Zm.61,2L2.48,55.91q.34.94.73,1.86l18.45-7.72c-.13-.32-.26-.64-.38-1Zm.8,1.91L4,59.6l.1.22h0v0h0c.18.37.36.73.55,1.1h0v0h0v0h0v0h0l.17.33,17.62-9.46c-.16-.3-.32-.61-.47-.93Zm1,1.83L5.92,63.13l.29.48h0v0h0v0h0q.36.58.74,1.15l16.64-11.1c-.19-.29-.38-.58-.56-.88Zm1.16,1.73L8.14,66.45l.22.3h0l0,0h0l0,0h0l0,0h0l0,0h0v0h.09v0h0v0h0l0,0h0l0,0h0l0,0h0l0,0h0l.7.89,15.5-12.64c-.22-.27-.43-.55-.64-.82Zm1.32,1.62L10.67,69.55q.67.74,1.37,1.46L26.26,56.94c-.24-.25-.49-.5-.72-.76ZM27,57.67,13.48,72.39l.76.68h.06l0,0h0l.66.57L27.8,58.36c-.27-.22-.53-.45-.79-.69ZM28.62,59,16.55,75l.93.68.69.48,11.3-16.5L28.62,59Zm1.72,1.18-10.49,17,.1.06H20q.75.46,1.52.88h0l9.66-17.51c-.3-.17-.6-.34-.9-.52Zm1.82,1-8.81,18,.34.16h.21l1.26.57L33.1,61.62l-.94-.43Zm1.9.82L27,80.73c.62.23,1.25.45,1.89.66l6.12-19-1-.34Zm2,.63L30.82,82l.24.06h.2l1.5.36L37,62.88c-.34-.07-.67-.15-1-.24Zm2,.44L34.73,82.81l1.51.23.47.06,2.36-19.86-1-.15Zm2.07.25-1.41,20,.4,0h.09l1,0h.54l.46-20c-.35,0-.7,0-1.05,0Zm3.16,0-1.05,0,.48,20,.56,0h.13l1.18-.06h.12l-1.42-20Zm2.07-.25-1,.15,2.37,19.86q.92-.11,1.83-.26h.14L45.35,63.08Zm2-.44-1,.24,4.27,19.54.22,0h.21l.76-.18h.36l.39-.1-5.2-19.32Zm2-.63-1,.34,6.13,19,.92-.31h.19l.77-.28L49.33,62Zm1.9-.82-.94.43L58.23,80l1-.47h.15l.62-.3-8.81-18Zm1.82-1-.9.52,9.67,17.51.18-.1h.17q.69-.39,1.37-.81l-10.5-17ZM54.77,59c-.28.21-.56.42-.85.61l11.3,16.5.75-.53h0l0,0h0l0,0h.19l0,0h0l.6-.45L54.77,59Zm1.6-1.34c-.26.24-.52.47-.79.69L68.41,73.7h0l0,0h.28l0,0h0l0,0h0l0,0h0l1-.87h0l0,0h.07l0,0h0l0,0h0L56.38,57.66Zm1.47-1.49c-.23.26-.47.51-.72.76L71.36,71h0l0,0h0l.93-1h0l0,0h0v0h0l0,0h0l.32-.35L57.85,56.17Zm1.32-1.62c-.21.28-.42.56-.64.83L74,68h0v0h.06v0h0v0h0l0,0h0l0,0h0L74.8,67h0l0,0h0v0h0v0h0v0h0l.36-.47L59.17,54.56Zm1.16-1.73c-.18.3-.37.59-.56.88L76.4,64.8l.14-.21v0h0q.46-.7.9-1.43h0v0h0L60.32,52.82Zm1-1.83c-.15.31-.31.62-.47.92l17.63,9.45.27-.51.42-.83h0v0h0v0h0v0h0l.16-.34L61.3,51Zm.8-1.91c-.12.32-.24.65-.37,1l18.45,7.71.28-.69h0v0h0v0h0v0h0c.14-.35.27-.7.4-1.06L62.1,49.09Zm.61-2c-.08.33-.18.67-.28,1L81.54,54l.13-.42h0v0h0v0h0v0h0v0h0v0h0v0h0v0h0v0h0v0h0v0h0c.11-.4.22-.8.33-1.21l-19.37-5Zm.42-2c-.05.34-.12.68-.18,1l19.59,4q.18-.85.32-1.72l0-.25L63.13,45.09ZM63.35,43c0,.35,0,.7-.09,1l19.89,2.12c0-.24,0-.47.07-.7h0v0h0v0h0q0-.57.08-1.14v-.06L63.35,43Zm20-2.83-20,.71q0,.4,0,.8V42l20,.23V41.8h0v0h0v0h0v0h0v0h0v0h0v-.21h0v0h0s0-.06,0-.09h0v0h0c0-.15,0-.29,0-.43h0s0-.06,0-.09h0v-.07s0,0,0,0h0v0h0c0-.09,0-.18,0-.28Zm-.33-4L63.2,38.81c0,.34.08.69.11,1l19.93-1.66q0-.23,0-.47h0v0h0v0h0v0h0v0h0c0-.46-.1-.92-.16-1.37Zm-.71-3.93-19.49,4.5c.08.33.15.68.21,1l19.68-3.56q-.09-.48-.18-1h0v0h0v0h0v0h0v0h0v0h0v0h0v0h0v0h0v0h0v0h0v0h0l-.07-.31h0v-.05h0v0h0l-.06-.24Zm-1.09-3.85-19,6.36c.11.33.21.66.31,1l19.25-5.44h0v0h0v0h0v0h0q-.21-.74-.45-1.47h0v0h0l-.1-.29Zm-1.45-3.72L61.51,32.85c.14.31.28.63.4,1l18.63-7.27q-.36-.93-.77-1.85ZM78,21.13,60.58,31c.17.3.33.61.49.92l17.84-9q-.4-.78-.82-1.54h0v0h0v0h0v0h0v0h0v0h0v0h0Zm-2.14-3.38L59.46,29.25c.2.28.39.58.58.87l16.9-10.7-.13-.2h0v0h0c-.21-.33-.43-.66-.66-1h0v0h0l-.27-.38Zm-2.45-3.16-15.19,13c.23.26.45.54.66.81l15.8-12.27L74.52,16h0l0,0h0l0,0h0v0h0v0h0v0h0v0h0v0h0l0,0h0l0,0h0l0,0h0l0,0h0l0,0h0l0,0h0l0,0h0l0,0h0l0,0h0l0,0h0l0,0h0v0h0v0h0v0h0v0h0v0H74v0h0v0h0v0h0l0,0h0l0,0h0l0,0h0l0,0h0l0,0h0l0,0h0l0,0h0l0,0h0l0,0h0l0,0h0v0h0v0h0v0h0v0h0v0h-.06v0h0l0,0h0l-.13-.15Zm-2.74-2.91L56.75,26.08c.25.24.5.49.74.74L72,13.1h0q-.69-.73-1.4-1.42ZM67.63,9,55.17,24.7c.27.22.54.44.8.67l13.18-15-.23-.2h0q-.62-.53-1.26-1ZM64.38,6.71,53.48,23.48c.29.19.58.39.86.59L66,7.84l-.46-.32h-.06L65,7.12h-.07l-.55-.36Zm-3.45-2L51.69,22.43l.91.5L62.68,5.66l-.43-.25h0l-.05,0h0l-.05,0h0l-1.21-.66ZM57.29,3,49.81,21.56l1,.41L59.13,3.81h-.31c-.5-.23-1-.44-1.53-.65ZM53.52,1.7,47.86,20.88l1,.32L55.42,2.31l-1.34-.44h-.15l-.42-.13ZM49.63.76,45.85,20.39l1,.22L51.59,1.18h-.23L50.54.94H50.3L49.63.76Zm-4-.57L43.79,20.1l1,.12L47.66.42l-.5-.07H47l-.9-.1h-.11l-.27,0Zm-4-.19V20l1.06,0,.94-20L42.47,0h-.78Z"/><path class="cls-8" d="M41.69,2A39.69,39.69,0,1,1,2,41.7,39.75,39.75,0,0,1,41.69,2m0-2a41.69,41.69,0,1,0,41.7,41.7A41.69,41.69,0,0,0,41.69,0Z"/><g class="cls-3"><path d="M77.71,41.7a36,36,0,1,1-36-36A36,36,0,0,1,77.71,41.7Z"/></g><path class="cls-9" d="M41.69,69.83A28.12,28.12,0,1,1,69.81,41.7,28.16,28.16,0,0,1,41.69,69.83Z"/><path class="cls-6" d="M41.69,16.58A25.12,25.12,0,1,1,16.56,41.7,25.15,25.15,0,0,1,41.69,16.58m0-6A31.12,31.12,0,1,0,72.81,41.7,31.11,31.11,0,0,0,41.69,10.58Z"/></g></svg>